<svg width="60" height="60" viewBox="0 0 60 60" fill="none" xmlns="http://www.w3.org/2000/svg">
<rect width="60" height="60" rx="30" fill="black"/>
<path d="M9.99881 39.6914V21.1341H12.8354L20.9476 34.6809H19.463L27.4427 21.1341H30.2793L30.3058 39.6914H27.045L27.0185 26.2506H27.7078L20.9211 37.5706H19.3835L12.4908 26.2506H13.2861V39.6914H9.99881Z" fill="white"/>
<path d="M27.9851 39.6914V21.1341H36.6806C38.9074 21.1341 40.6041 21.576 41.7706 22.4596C42.937 23.3256 43.5202 24.4921 43.5202 25.959C43.5202 26.9487 43.2905 27.7971 42.831 28.504C42.3715 29.1933 41.7529 29.7323 40.9752 30.1211C40.2153 30.4923 39.3846 30.6779 38.4833 30.6779L38.9605 29.7235C40.0032 29.7235 40.9399 29.9179 41.7706 30.3067C42.6012 30.6779 43.2551 31.2257 43.7323 31.9504C44.2272 32.675 44.4746 33.5763 44.4746 34.6544C44.4746 36.2451 43.8649 37.4822 42.6454 38.3659C41.4259 39.2496 39.6144 39.6914 37.2108 39.6914H27.9851ZM31.4315 36.9873H36.9987C38.2889 36.9873 39.2786 36.7753 39.9678 36.3511C40.6571 35.9269 41.0018 35.2465 41.0018 34.3098C41.0018 33.3908 40.6571 32.7192 39.9678 32.295C39.2786 31.8532 38.2889 31.6322 36.9987 31.6322H31.1664V28.9547H36.3094C37.5112 28.9547 38.4302 28.7426 39.0665 28.3184C39.7204 27.8943 40.0474 27.258 40.0474 26.4097C40.0474 25.5437 39.7204 24.8986 39.0665 24.4744C38.4302 24.0503 37.5112 23.8382 36.3094 23.8382H31.4315V36.9873Z" fill="white"/>
<path d="M49.2006 40.1221C48.6975 40.1221 48.2685 39.952 47.9134 39.6117C47.5584 39.2567 47.3808 38.8128 47.3808 38.2802C47.3808 37.718 47.5584 37.2742 47.9134 36.9487C48.2685 36.6084 48.6975 36.4383 49.2006 36.4383C49.7036 36.4383 50.1326 36.6084 50.4877 36.9487C50.8428 37.2742 51.0203 37.718 51.0203 38.2802C51.0203 38.8128 50.8428 39.2567 50.4877 39.6117C50.1326 39.952 49.7036 40.1221 49.2006 40.1221Z" fill="white"/>
</svg>
